<svg width="28" height="28" viewBox="0 0 28 28" fill="none" xmlns="http://www.w3.org/2000/svg">
<path d="M24.5 13.7084H3.49998C2.37998 13.7084 1.45831 12.7867 1.45831 11.6667V7.79334C1.45831 7.00001 2.00662 6.19502 2.74162 5.90335L13.2416 1.70338C13.685 1.52838 14.315 1.52838 14.7583 1.70338L25.2583 5.90335C25.9933 6.19502 26.5416 7.01168 26.5416 7.79334V11.6667C26.5416 12.7867 25.62 13.7084 24.5 13.7084ZM14 3.31338C13.9533 3.31338 13.9067 3.31332 13.8833 3.32499L3.39495 7.52503C3.32495 7.56003 3.20831 7.71168 3.20831 7.79334V11.6667C3.20831 11.83 3.33665 11.9584 3.49998 11.9584H24.5C24.6633 11.9584 24.7916 11.83 24.7916 11.6667V7.79334C24.7916 7.71168 24.6867 7.56003 24.605 7.52503L14.105 3.32499C14.0817 3.31332 14.0466 3.31338 14 3.31338Z" fill="#1C2C56"/>
<path d="M25.6666 26.5417H2.33331C1.85498 26.5417 1.45831 26.145 1.45831 25.6667V22.1667C1.45831 21.0467 2.37998 20.125 3.49998 20.125H24.5C25.62 20.125 26.5416 21.0467 26.5416 22.1667V25.6667C26.5416 26.145 26.145 26.5417 25.6666 26.5417ZM3.20831 24.7917H24.7916V22.1667C24.7916 22.0033 24.6633 21.875 24.5 21.875H3.49998C3.33665 21.875 3.20831 22.0033 3.20831 22.1667V24.7917Z" fill="#1C2C56"/>
<path d="M4.66669 21.875C4.18835 21.875 3.79169 21.4783 3.79169 21V12.8333C3.79169 12.355 4.18835 11.9583 4.66669 11.9583C5.14502 11.9583 5.54169 12.355 5.54169 12.8333V21C5.54169 21.4783 5.14502 21.875 4.66669 21.875Z" fill="#1C2C56"/>
<path d="M9.33331 21.875C8.85498 21.875 8.45831 21.4783 8.45831 21V12.8333C8.45831 12.355 8.85498 11.9583 9.33331 11.9583C9.81165 11.9583 10.2083 12.355 10.2083 12.8333V21C10.2083 21.4783 9.81165 21.875 9.33331 21.875Z" fill="#1C2C56"/>
<path d="M14 21.875C13.5217 21.875 13.125 21.4783 13.125 21V12.8333C13.125 12.355 13.5217 11.9583 14 11.9583C14.4783 11.9583 14.875 12.355 14.875 12.8333V21C14.875 21.4783 14.4783 21.875 14 21.875Z" fill="#1C2C56"/>
<path d="M18.6667 21.875C18.1884 21.875 17.7917 21.4783 17.7917 21V12.8333C17.7917 12.355 18.1884 11.9583 18.6667 11.9583C19.145 11.9583 19.5417 12.355 19.5417 12.8333V21C19.5417 21.4783 19.145 21.875 18.6667 21.875Z" fill="#1C2C56"/>
<path d="M23.3333 21.875C22.855 21.875 22.4583 21.4783 22.4583 21V12.8333C22.4583 12.355 22.855 11.9583 23.3333 11.9583C23.8116 11.9583 24.2083 12.355 24.2083 12.8333V21C24.2083 21.4783 23.8116 21.875 23.3333 21.875Z" fill="#1C2C56"/>
<path d="M26.8334 26.5417H1.16669C0.688354 26.5417 0.291687 26.145 0.291687 25.6667C0.291687 25.1883 0.688354 24.7917 1.16669 24.7917H26.8334C27.3117 24.7917 27.7084 25.1883 27.7084 25.6667C27.7084 26.145 27.3117 26.5417 26.8334 26.5417Z" fill="#1C2C56"/>
<path d="M14 10.7917C12.5533 10.7917 11.375 9.61334 11.375 8.16667C11.375 6.72001 12.5533 5.54167 14 5.54167C15.4467 5.54167 16.625 6.72001 16.625 8.16667C16.625 9.61334 15.4467 10.7917 14 10.7917ZM14 7.29167C13.5217 7.29167 13.125 7.68834 13.125 8.16667C13.125 8.64501 13.5217 9.04167 14 9.04167C14.4783 9.04167 14.875 8.64501 14.875 8.16667C14.875 7.68834 14.4783 7.29167 14 7.29167Z" fill="#1C2C56"/>
</svg>
