<svg width="25" height="25" viewBox="0 0 25 25" fill="none" xmlns="http://www.w3.org/2000/svg">
<path d="M12.3 23.1584C11.61 23.1584 10.96 22.8084 10.5 22.1984L9.00002 20.1984C8.97002 20.1584 8.85002 20.1084 8.80002 20.0984H8.30002C4.13002 20.0984 1.55002 18.9684 1.55002 13.3484V8.34844C1.55002 3.92844 3.88002 1.59844 8.30002 1.59844H16.3C20.72 1.59844 23.05 3.92844 23.05 8.34844V13.3484C23.05 17.7684 20.72 20.0984 16.3 20.0984H15.8C15.72 20.0984 15.65 20.1384 15.6 20.1984L14.1 22.1984C13.64 22.8084 12.99 23.1584 12.3 23.1584ZM8.30002 3.09844C4.72002 3.09844 3.05002 4.76844 3.05002 8.34844V13.3484C3.05002 17.8684 4.60002 18.5984 8.30002 18.5984H8.80002C9.31002 18.5984 9.89002 18.8884 10.2 19.2984L11.7 21.2984C12.05 21.7584 12.55 21.7584 12.9 21.2984L14.4 19.2984C14.73 18.8584 15.25 18.5984 15.8 18.5984H16.3C19.88 18.5984 21.55 16.9284 21.55 13.3484V8.34844C21.55 4.76844 19.88 3.09844 16.3 3.09844H8.30002Z" fill="#A4ABBB"/>
<path d="M12.3 12.3484C11.74 12.3484 11.3 11.8984 11.3 11.3484C11.3 10.7984 11.75 10.3484 12.3 10.3484C12.85 10.3484 13.3 10.7984 13.3 11.3484C13.3 11.8984 12.86 12.3484 12.3 12.3484Z" fill="#A4ABBB"/>
<path d="M16.3 12.3484C15.74 12.3484 15.3 11.8984 15.3 11.3484C15.3 10.7984 15.75 10.3484 16.3 10.3484C16.85 10.3484 17.3 10.7984 17.3 11.3484C17.3 11.8984 16.86 12.3484 16.3 12.3484Z" fill="#A4ABBB"/>
<path d="M8.30002 12.3484C7.74002 12.3484 7.30002 11.8984 7.30002 11.3484C7.30002 10.7984 7.75002 10.3484 8.30002 10.3484C8.85002 10.3484 9.30002 10.7984 9.30002 11.3484C9.30002 11.8984 8.86002 12.3484 8.30002 12.3484Z" fill="#A4ABBB"/>
</svg>
