<svg width="23" height="23" viewBox="0 0 23 23" fill="none" xmlns="http://www.w3.org/2000/svg">
<g clip-path="url(#clip0_1046_1812)">
<path d="M13.8045 9.29883C17.5285 8.89004 20.4709 5.90273 20.8123 2.15625H20.4844C17.0389 2.15625 14.1055 4.36191 13.0229 7.43457C12.6275 6.67988 12.1514 5.97012 11.6033 5.31875C13.3014 2.15625 16.6436 0 20.4844 0H21.5625C22.3576 0 23 0.642383 23 1.4375C23 6.54063 19.1996 10.7543 14.2762 11.4102C14.1818 10.6824 14.0246 9.97715 13.8045 9.29434V9.29883ZM2.15625 5.03125V5.75C2.15625 10.1164 5.69609 13.6562 10.0625 13.6562H10.4219V12.9375C10.4219 8.57109 6.88203 5.03125 2.51562 5.03125H2.15625ZM12.5781 12.9375V13.6562V15.8125V21.9219C12.5781 22.5193 12.0975 23 11.5 23C10.9025 23 10.4219 22.5193 10.4219 21.9219V15.8125H10.0625C4.50566 15.8125 0 11.3068 0 5.75V4.3125C0 3.51738 0.642383 2.875 1.4375 2.875H2.51562C8.07246 2.875 12.5781 7.38066 12.5781 12.9375Z" fill="#1C2C56"/>
</g>
<defs>
<clipPath id="clip0_1046_1812">
<rect width="23" height="23" fill="white"/>
</clipPath>
</defs>
</svg>
