<svg width="28" height="25" viewBox="0 0 28 25" fill="none" xmlns="http://www.w3.org/2000/svg">
<g clip-path="url(#clip0_1046_1816)">
<path d="M3.5 2.75C3.0875 2.75 2.75 3.0875 2.75 3.5V20C2.75 20.4125 3.0875 20.75 3.5 20.75H24.5C24.9125 20.75 25.25 20.4125 25.25 20V3.5C25.25 3.0875 24.9125 2.75 24.5 2.75H3.5ZM0.5 3.5C0.5 1.84531 1.84531 0.5 3.5 0.5H24.5C26.1547 0.5 27.5 1.84531 27.5 3.5V20C27.5 21.6547 26.1547 23 24.5 23V23.375C24.5 23.9984 23.9984 24.5 23.375 24.5C22.7516 24.5 22.25 23.9984 22.25 23.375V23H5.75V23.375C5.75 23.9984 5.24844 24.5 4.625 24.5C4.00156 24.5 3.5 23.9984 3.5 23.375V23C1.84531 23 0.5 21.6547 0.5 20V3.5ZM15.5 11.75C15.5 11.1591 15.3836 10.5739 15.1575 10.0279C14.9313 9.48196 14.5998 8.98588 14.182 8.56802C13.7641 8.15016 13.268 7.81869 12.7221 7.59254C12.1761 7.3664 11.5909 7.25 11 7.25C10.4091 7.25 9.82389 7.3664 9.27792 7.59254C8.73196 7.81869 8.23588 8.15016 7.81802 8.56802C7.40016 8.98588 7.06869 9.48196 6.84254 10.0279C6.6164 10.5739 6.5 11.1591 6.5 11.75C6.5 12.3409 6.6164 12.9261 6.84254 13.4721C7.06869 14.018 7.40016 14.5141 7.81802 14.932C8.23588 15.3498 8.73196 15.6813 9.27792 15.9075C9.82389 16.1336 10.4091 16.25 11 16.25C11.5909 16.25 12.1761 16.1336 12.7221 15.9075C13.268 15.6813 13.7641 15.3498 14.182 14.932C14.5998 14.5141 14.9313 14.018 15.1575 13.4721C15.3836 12.9261 15.5 12.3409 15.5 11.75ZM4.25 11.75C4.25 10.8636 4.42459 9.98583 4.76381 9.16689C5.10303 8.34794 5.60023 7.60382 6.22703 6.97703C6.85382 6.35023 7.59794 5.85303 8.41689 5.51381C9.23583 5.17459 10.1136 5 11 5C11.8864 5 12.7642 5.17459 13.5831 5.51381C14.4021 5.85303 15.1462 6.35023 15.773 6.97703C16.3998 7.60382 16.897 8.34794 17.2362 9.16689C17.5754 9.98583 17.75 10.8636 17.75 11.75C17.75 12.6364 17.5754 13.5142 17.2362 14.3331C16.897 15.1521 16.3998 15.8962 15.773 16.523C15.1462 17.1498 14.4021 17.647 13.5831 17.9862C12.7642 18.3254 11.8864 18.5 11 18.5C10.1136 18.5 9.23583 18.3254 8.41689 17.9862C7.59794 17.647 6.85382 17.1498 6.22703 16.523C5.60023 15.8962 5.10303 15.1521 4.76381 14.3331C4.42459 13.5142 4.25 12.6364 4.25 11.75ZM11 9.5C11.5967 9.5 12.169 9.73705 12.591 10.159C13.0129 10.581 13.25 11.1533 13.25 11.75C13.25 12.3467 13.0129 12.919 12.591 13.341C12.169 13.7629 11.5967 14 11 14C10.4033 14 9.83097 13.7629 9.40901 13.341C8.98705 12.919 8.75 12.3467 8.75 11.75C8.75 11.1533 8.98705 10.581 9.40901 10.159C9.83097 9.73705 10.4033 9.5 11 9.5ZM23.75 8.75C23.75 9.58438 23.2953 10.3109 22.625 10.7V15.875C22.625 16.4984 22.1234 17 21.5 17C20.8766 17 20.375 16.4984 20.375 15.875V10.7C19.7047 10.3109 19.25 9.58438 19.25 8.75C19.25 7.50781 20.2578 6.5 21.5 6.5C22.7422 6.5 23.75 7.50781 23.75 8.75Z" fill="#1C2C56"/>
</g>
<defs>
<clipPath id="clip0_1046_1816">
<rect width="27" height="24" fill="white" transform="translate(0.5 0.5)"/>
</clipPath>
</defs>
</svg>
